<?xml version="1.0" encoding="utf-8"?>
<!-- Generator: Adobe Illustrator 18.1.1, SVG Export Plug-In . SVG Version: 6.00 Build 0)  -->
<svg version="1.1" id="Layer_1" xmlns="http://www.w3.org/2000/svg" xmlns:xlink="http://www.w3.org/1999/xlink" x="0px" y="0px"
	 viewBox="0 0 54 54" enable-background="new 0 0 54 54" xml:space="preserve">
<g>
	<path d="M3.8,12.7h0.6l-1.1,5.2l5.8-5.2h0.7l-4.2,3.7l2.5,4.8H7.4l-2.3-4.4l-2,1.8l-0.6,2.6H1.9L3.8,12.7z"/>
	<path d="M10.6,12.7H11l4,7.5l1.6-7.5h0.6l-1.8,8.5h-0.5l-4-7.4l-1.6,7.4H8.7L10.6,12.7z"/>
	<path d="M18.5,12.7h0.6l-1.8,8.5h-0.6L18.5,12.7z"/>
	<path d="M25,19.9c-1,0.9-2,1.4-3,1.4c-0.5,0-0.9-0.1-1.3-0.3c-0.4-0.2-0.7-0.5-0.9-0.8s-0.5-0.7-0.6-1.1c-0.1-0.4-0.2-0.9-0.2-1.3
		c0-0.6,0.1-1.3,0.4-1.9c0.3-0.6,0.6-1.2,1-1.6c0.4-0.5,0.9-0.9,1.5-1.2s1.2-0.4,1.8-0.4c0.4,0,0.8,0,1.1,0.1
		c0.3,0.1,0.6,0.2,0.8,0.4c0.2,0.2,0.4,0.4,0.5,0.6s0.2,0.5,0.3,0.8l-0.6,0.3c-0.2-0.6-0.4-1-0.8-1.2s-0.9-0.4-1.5-0.4
		c-0.6,0-1.1,0.1-1.6,0.4c-0.5,0.3-0.9,0.6-1.3,1c-0.4,0.4-0.6,0.9-0.9,1.4s-0.3,1.1-0.3,1.6c0,0.4,0.1,0.8,0.2,1.2
		c0.1,0.4,0.3,0.7,0.5,1c0.2,0.3,0.5,0.5,0.8,0.7c0.3,0.2,0.7,0.2,1,0.2c0.5,0,1-0.1,1.5-0.4c0.5-0.2,1-0.6,1.5-1.1l0.4-1.7h-1.8
		l0.1-0.5h2.4l-0.9,4.1h-0.5L25,19.9z"/>
	<path d="M28.3,12.7h0.6l-0.8,3.9h5.1l0.8-3.9h0.6l-1.8,8.5h-0.6l0.9-4.1H28l-0.9,4.1h-0.6L28.3,12.7z"/>
	<path d="M38,13.3h-3l0.1-0.6h6.5l-0.1,0.6h-3l-1.7,8h-0.6L38,13.3z"/>
	<path d="M43,21.3c-1.3,0-2.2-0.4-3-1.3l0.4-0.5c0.3,0.4,0.6,0.7,1,0.9c0.4,0.2,1,0.3,1.6,0.3c0.8,0,1.4-0.2,1.9-0.5
		s0.7-0.8,0.7-1.5c0-0.4-0.2-0.8-0.6-1c-0.4-0.2-0.9-0.4-1.6-0.6c-0.4-0.1-0.7-0.2-1-0.3s-0.5-0.2-0.7-0.3c-0.2-0.1-0.3-0.3-0.4-0.5
		c-0.1-0.2-0.2-0.4-0.2-0.7c0-0.4,0.1-0.8,0.3-1.2c0.2-0.3,0.4-0.6,0.7-0.9c0.3-0.2,0.7-0.4,1.1-0.6c0.4-0.1,0.9-0.2,1.4-0.2
		c0.5,0,1,0.1,1.4,0.2c0.4,0.2,0.7,0.4,1,0.8l-0.4,0.5c-0.4-0.6-1.1-0.9-2-0.9c-0.5,0-0.9,0.1-1.2,0.2c-0.3,0.1-0.6,0.3-0.8,0.4
		c-0.2,0.2-0.4,0.4-0.5,0.7c-0.1,0.3-0.2,0.5-0.2,0.8c0,0.2,0,0.4,0.1,0.5c0.1,0.1,0.2,0.3,0.4,0.4s0.4,0.2,0.6,0.3s0.5,0.2,0.9,0.2
		c0.4,0.1,0.7,0.2,1,0.3s0.6,0.2,0.8,0.4c0.2,0.1,0.4,0.3,0.5,0.5c0.1,0.2,0.2,0.5,0.2,0.8c0,0.4-0.1,0.8-0.3,1.2s-0.4,0.6-0.7,0.8
		c-0.3,0.2-0.7,0.4-1.1,0.5S43.5,21.3,43,21.3z"/>
	<path d="M4.5,31.7l1.8-8.5h3.4c0.3,0,0.5,0.1,0.8,0.2s0.4,0.3,0.6,0.5c0.2,0.2,0.3,0.4,0.4,0.7c0.1,0.3,0.1,0.5,0.1,0.8
		c0,0.4-0.1,0.7-0.2,1c-0.1,0.3-0.3,0.6-0.5,0.9S10.3,27.8,10,28c-0.3,0.2-0.6,0.3-1,0.4l1.3,3.3H9.6l-1.3-3.2H5.8l-0.7,3.2H4.5z
		 M8.7,27.9c0.3,0,0.6-0.1,0.8-0.2s0.5-0.3,0.7-0.6c0.2-0.2,0.4-0.5,0.5-0.8c0.1-0.3,0.2-0.6,0.2-0.9c0-0.2,0-0.4-0.1-0.6
		c-0.1-0.2-0.2-0.4-0.3-0.5c-0.1-0.2-0.3-0.3-0.4-0.4c-0.2-0.1-0.4-0.1-0.6-0.1H6.8l-0.9,4.2H8.7z"/>
	<path d="M14.5,31.7c-0.5,0-0.9-0.1-1.3-0.3s-0.7-0.5-0.9-0.8c-0.3-0.3-0.4-0.7-0.6-1.1c-0.1-0.4-0.2-0.9-0.2-1.3
		c0-0.7,0.1-1.3,0.4-1.9c0.3-0.6,0.6-1.2,1.1-1.6c0.4-0.5,1-0.9,1.5-1.2s1.2-0.4,1.8-0.4c0.5,0,0.9,0.1,1.3,0.3
		c0.4,0.2,0.7,0.5,0.9,0.8c0.3,0.3,0.4,0.7,0.6,1.1c0.1,0.4,0.2,0.9,0.2,1.3c0,0.6-0.1,1.3-0.4,1.9c-0.3,0.6-0.6,1.2-1.1,1.6
		c-0.4,0.5-1,0.9-1.5,1.1C15.7,31.6,15.1,31.7,14.5,31.7z M14.6,31.1c0.6,0,1.1-0.1,1.6-0.4s0.9-0.6,1.3-1c0.4-0.4,0.7-0.9,0.9-1.4
		c0.2-0.5,0.3-1.1,0.3-1.6c0-0.4-0.1-0.8-0.2-1.2c-0.1-0.4-0.3-0.7-0.5-1c-0.2-0.3-0.5-0.5-0.8-0.7s-0.7-0.2-1-0.2
		c-0.6,0-1.1,0.1-1.6,0.4s-0.9,0.6-1.3,1c-0.4,0.4-0.7,0.9-0.9,1.4c-0.2,0.5-0.3,1.1-0.3,1.6c0,0.4,0.1,0.8,0.2,1.2
		c0.1,0.4,0.3,0.7,0.5,1s0.5,0.5,0.8,0.7C13.9,31.1,14.2,31.1,14.6,31.1z"/>
	<path d="M22.7,31.7c-0.5,0-0.9-0.1-1.3-0.3s-0.7-0.5-0.9-0.8c-0.3-0.3-0.4-0.7-0.6-1.1c-0.1-0.4-0.2-0.9-0.2-1.3
		c0-0.7,0.1-1.3,0.4-1.9c0.3-0.6,0.6-1.2,1.1-1.6c0.4-0.5,1-0.9,1.5-1.2s1.2-0.4,1.8-0.4c0.5,0,0.9,0.1,1.3,0.3
		c0.4,0.2,0.7,0.5,0.9,0.8c0.3,0.3,0.4,0.7,0.6,1.1c0.1,0.4,0.2,0.9,0.2,1.3c0,0.6-0.1,1.3-0.4,1.9c-0.3,0.6-0.6,1.2-1.1,1.6
		c-0.4,0.5-1,0.9-1.5,1.1C23.9,31.6,23.3,31.7,22.7,31.7z M22.8,31.1c0.6,0,1.1-0.1,1.6-0.4s0.9-0.6,1.3-1c0.4-0.4,0.7-0.9,0.9-1.4
		c0.2-0.5,0.3-1.1,0.3-1.6c0-0.4-0.1-0.8-0.2-1.2c-0.1-0.4-0.3-0.7-0.5-1c-0.2-0.3-0.5-0.5-0.8-0.7s-0.7-0.2-1-0.2
		c-0.6,0-1.1,0.1-1.6,0.4s-0.9,0.6-1.3,1c-0.4,0.4-0.7,0.9-0.9,1.4c-0.2,0.5-0.3,1.1-0.3,1.6c0,0.4,0.1,0.8,0.2,1.2
		c0.1,0.4,0.3,0.7,0.5,1s0.5,0.5,0.8,0.7C22.1,31.1,22.4,31.1,22.8,31.1z"/>
	<path d="M29,23.1h0.6l-1.1,5.2l5.8-5.2H35l-4.2,3.7l2.5,4.8h-0.7l-2.3-4.4l-2,1.8l-0.6,2.6h-0.6L29,23.1z"/>
	<path d="M36.5,31.7c-1.3,0-2.2-0.4-3-1.3L34,30c0.3,0.4,0.6,0.7,1,0.9c0.4,0.2,1,0.3,1.6,0.3c0.8,0,1.4-0.2,1.9-0.5
		s0.7-0.8,0.7-1.5c0-0.4-0.2-0.8-0.6-1c-0.4-0.2-0.9-0.4-1.6-0.6c-0.4-0.1-0.7-0.2-1-0.3s-0.5-0.2-0.7-0.3c-0.2-0.1-0.3-0.3-0.4-0.5
		c-0.1-0.2-0.2-0.4-0.2-0.7c0-0.4,0.1-0.8,0.3-1.2c0.2-0.3,0.4-0.6,0.7-0.9c0.3-0.2,0.7-0.4,1.1-0.6c0.4-0.1,0.9-0.2,1.4-0.2
		c0.5,0,1,0.1,1.4,0.2s0.7,0.4,1,0.8l-0.4,0.5c-0.4-0.6-1.1-0.9-2-0.9c-0.5,0-0.9,0.1-1.2,0.2c-0.3,0.1-0.6,0.3-0.8,0.4
		c-0.2,0.2-0.4,0.4-0.5,0.7c-0.1,0.3-0.2,0.5-0.2,0.8c0,0.2,0,0.4,0.1,0.5c0.1,0.1,0.2,0.3,0.4,0.4s0.4,0.2,0.6,0.3s0.5,0.2,0.9,0.2
		c0.4,0.1,0.7,0.2,1,0.3c0.3,0.1,0.6,0.2,0.8,0.4s0.4,0.3,0.5,0.5c0.1,0.2,0.2,0.5,0.2,0.8c0,0.4-0.1,0.8-0.3,1.2S39.3,30.8,39,31
		c-0.3,0.2-0.7,0.4-1.1,0.5S37,31.7,36.5,31.7z"/>
	<path d="M8.8,33.5h3.8c0.2,0,0.4,0.1,0.6,0.2c0.2,0.1,0.3,0.2,0.4,0.4c0.1,0.2,0.2,0.3,0.3,0.6c0.1,0.2,0.1,0.4,0.1,0.6
		c0,0.3,0,0.5-0.1,0.8c-0.1,0.2-0.2,0.5-0.3,0.7s-0.3,0.4-0.5,0.6c-0.2,0.2-0.4,0.3-0.7,0.4c0.4,0.1,0.6,0.3,0.8,0.7
		s0.3,0.7,0.3,1.1c0,0.4-0.1,0.7-0.2,1c-0.2,0.3-0.4,0.6-0.6,0.8c-0.3,0.2-0.5,0.4-0.9,0.6c-0.3,0.1-0.7,0.2-1,0.2H7L8.8,33.5z
		 M10.9,41.5c0.2,0,0.5-0.1,0.7-0.2c0.2-0.1,0.4-0.3,0.6-0.5c0.2-0.2,0.3-0.4,0.4-0.7c0.1-0.2,0.2-0.5,0.2-0.8c0-0.2,0-0.4-0.1-0.5
		c-0.1-0.2-0.1-0.3-0.2-0.5c-0.1-0.1-0.2-0.2-0.4-0.3C12.1,38,11.9,38,11.8,38H8.5l-0.7,3.5H10.9z M11.5,37.5c0.2,0,0.5-0.1,0.7-0.2
		c0.2-0.1,0.4-0.3,0.6-0.5c0.2-0.2,0.3-0.4,0.4-0.7s0.2-0.5,0.2-0.8c0-0.4-0.1-0.7-0.3-1c-0.2-0.3-0.5-0.4-0.8-0.4h-3l-0.7,3.4H11.5
		z"/>
	<path d="M15.7,33.5h0.6L14.5,42h-0.6L15.7,33.5z"/>
	<path d="M18.6,42.1c-1.3,0-2.2-0.4-3-1.3l0.4-0.5c0.3,0.4,0.6,0.7,1.1,0.9c0.4,0.2,1,0.3,1.6,0.3c0.8,0,1.4-0.2,1.9-0.5
		c0.5-0.3,0.7-0.8,0.7-1.5c0-0.4-0.2-0.8-0.6-1s-0.9-0.4-1.6-0.6c-0.4-0.1-0.7-0.2-1-0.3c-0.3-0.1-0.5-0.2-0.7-0.3
		c-0.2-0.1-0.3-0.3-0.4-0.5c-0.1-0.2-0.1-0.4-0.1-0.7c0-0.4,0.1-0.8,0.3-1.2c0.2-0.3,0.4-0.6,0.7-0.9c0.3-0.2,0.7-0.4,1.1-0.6
		c0.4-0.1,0.9-0.2,1.4-0.2c0.5,0,1,0.1,1.4,0.2c0.4,0.2,0.7,0.4,1,0.8l-0.4,0.5c-0.4-0.6-1.1-0.9-2-0.9c-0.5,0-0.9,0.1-1.2,0.2
		c-0.3,0.1-0.6,0.3-0.8,0.4c-0.2,0.2-0.4,0.4-0.5,0.7c-0.1,0.3-0.2,0.5-0.2,0.8c0,0.2,0,0.4,0.1,0.5c0.1,0.1,0.2,0.3,0.4,0.4
		s0.4,0.2,0.6,0.3s0.5,0.2,0.9,0.2c0.4,0.1,0.7,0.2,1,0.3c0.3,0.1,0.6,0.2,0.8,0.4s0.4,0.3,0.5,0.5c0.1,0.2,0.2,0.5,0.2,0.8
		c0,0.4-0.1,0.8-0.3,1.2c-0.2,0.3-0.4,0.6-0.7,0.8c-0.3,0.2-0.7,0.4-1.1,0.5C19.5,42.1,19,42.1,18.6,42.1z"/>
	<path d="M24.3,33.5h0.6l-0.8,3.9h5.1l0.8-3.9h0.6L28.8,42h-0.6l0.9-4.1H24L23.1,42h-0.6L24.3,33.5z"/>
	<path d="M33.5,42.1c-0.5,0-0.9-0.1-1.3-0.3c-0.4-0.2-0.7-0.5-0.9-0.8c-0.3-0.3-0.4-0.7-0.6-1.1s-0.2-0.9-0.2-1.3
		c0-0.7,0.1-1.3,0.4-1.9c0.3-0.6,0.6-1.2,1.1-1.6c0.4-0.5,1-0.9,1.5-1.2c0.6-0.3,1.2-0.4,1.8-0.4c0.5,0,0.9,0.1,1.3,0.3
		c0.4,0.2,0.7,0.5,0.9,0.8s0.4,0.7,0.6,1.1c0.1,0.4,0.2,0.9,0.2,1.3c0,0.6-0.1,1.3-0.4,1.9c-0.3,0.6-0.6,1.2-1.1,1.6
		c-0.4,0.5-1,0.9-1.5,1.1S34.1,42.1,33.5,42.1z M33.6,41.5c0.6,0,1.1-0.1,1.6-0.4c0.5-0.3,0.9-0.6,1.3-1c0.4-0.4,0.7-0.9,0.9-1.4
		c0.2-0.5,0.3-1.1,0.3-1.6c0-0.4-0.1-0.8-0.2-1.2c-0.1-0.4-0.3-0.7-0.5-1c-0.2-0.3-0.5-0.5-0.8-0.7c-0.3-0.2-0.7-0.2-1-0.2
		c-0.6,0-1.1,0.1-1.6,0.4c-0.5,0.3-0.9,0.6-1.3,1c-0.4,0.4-0.7,0.9-0.9,1.4c-0.2,0.5-0.3,1.1-0.3,1.6c0,0.4,0.1,0.8,0.2,1.2
		c0.1,0.4,0.3,0.7,0.5,1c0.2,0.3,0.5,0.5,0.8,0.7C32.9,41.5,33.2,41.5,33.6,41.5z"/>
	<path d="M40.3,33.5h3.3c0.3,0,0.6,0.1,0.8,0.2s0.4,0.3,0.6,0.5s0.3,0.4,0.4,0.7s0.1,0.5,0.1,0.8c0,0.4-0.1,0.8-0.2,1.1
		s-0.4,0.7-0.6,1c-0.3,0.3-0.6,0.5-0.9,0.7c-0.4,0.2-0.7,0.3-1.1,0.3h-2.8L39.1,42h-0.6L40.3,33.5z M42.7,38.3
		c0.3,0,0.6-0.1,0.9-0.2c0.3-0.1,0.5-0.3,0.7-0.6c0.2-0.2,0.4-0.5,0.5-0.8c0.1-0.3,0.2-0.6,0.2-0.9c0-0.2,0-0.4-0.1-0.7
		c-0.1-0.2-0.2-0.4-0.3-0.5c-0.1-0.2-0.3-0.3-0.4-0.4c-0.2-0.1-0.4-0.1-0.6-0.1h-2.7l-0.9,4.2H42.7z"/>
	<path d="M47.7,42.1c-1.3,0-2.2-0.4-3-1.3l0.4-0.5c0.3,0.4,0.6,0.7,1,0.9s1,0.3,1.6,0.3c0.8,0,1.4-0.2,1.9-0.5
		c0.5-0.3,0.7-0.8,0.7-1.5c0-0.4-0.2-0.8-0.6-1c-0.4-0.2-0.9-0.4-1.6-0.6c-0.4-0.1-0.7-0.2-1-0.3c-0.3-0.1-0.5-0.2-0.7-0.3
		c-0.2-0.1-0.3-0.3-0.4-0.5c-0.1-0.2-0.2-0.4-0.2-0.7c0-0.4,0.1-0.8,0.3-1.2s0.4-0.6,0.7-0.9c0.3-0.2,0.7-0.4,1.1-0.6
		c0.4-0.1,0.9-0.2,1.4-0.2c0.5,0,1,0.1,1.4,0.2c0.4,0.2,0.7,0.4,1,0.8l-0.4,0.5c-0.4-0.6-1.1-0.9-2-0.9c-0.5,0-0.9,0.1-1.2,0.2
		c-0.3,0.1-0.6,0.3-0.8,0.4c-0.2,0.2-0.4,0.4-0.5,0.7c-0.1,0.3-0.2,0.5-0.2,0.8c0,0.2,0,0.4,0.1,0.5s0.2,0.3,0.4,0.4
		s0.4,0.2,0.6,0.3s0.5,0.2,0.9,0.2c0.4,0.1,0.7,0.2,1,0.3s0.6,0.2,0.8,0.4c0.2,0.1,0.4,0.3,0.5,0.5c0.1,0.2,0.2,0.5,0.2,0.8
		c0,0.4-0.1,0.8-0.3,1.2s-0.4,0.6-0.7,0.8c-0.3,0.2-0.7,0.4-1.1,0.5C48.7,42.1,48.2,42.1,47.7,42.1z"/>
</g>
</svg>
